<svg width="64" height="64" viewBox="0 0 64 64" fill="none" xmlns="http://www.w3.org/2000/svg">
  <rect width="64" height="64" rx="18" fill="url(#bg)"/>
  <path d="M22.5 17C17.8056 17 14 20.8056 14 25.5C14 28.2862 15.3406 30.7592 17.4148 32.3096C16.8469 33.2975 16.2576 34.0701 15.5492 34.9414C15.0611 35.5418 14.5747 36.14 14.1406 36.8535C13.8348 37.3561 13.8889 37.9966 14.2754 38.4404C14.6618 38.8843 15.2834 39.0261 15.8164 38.793C18.0014 37.8373 19.8085 36.6886 21.4482 35.124C21.7933 35.1581 22.1449 35.1758 22.5 35.1758C24.5176 35.1758 26.3703 34.4721 27.8271 33.2979C29.6135 35.4314 32.2977 36.793 35.3008 36.793C35.997 36.793 36.676 36.7205 37.3311 36.5859C39.4686 38.5274 41.9503 39.9511 44.9785 41.2754C45.5115 41.5085 46.1331 41.3667 46.5195 40.9229C46.906 40.479 46.9602 39.8385 46.6543 39.3359C46.2202 38.6224 45.7338 38.0242 45.2457 37.4238C44.4138 36.4006 43.74 35.5299 43.0732 34.3535C45.3696 32.675 46.8613 29.9627 46.8613 26.9023C46.8613 21.8042 42.7288 17.6719 37.6309 17.6719C35.1214 17.6719 32.8454 18.6732 31.1807 20.2979C29.5284 18.2459 26.9959 17 24.1719 17H22.5Z" fill="white" fill-opacity="0.94"/>
  <path d="M24.5 23.5C24.5 21.8431 25.8431 20.5 27.5 20.5H35.5C37.1569 20.5 38.5 21.8431 38.5 23.5V24.5H40C41.933 24.5 43.5 26.067 43.5 28V31C43.5 32.933 41.933 34.5 40 34.5H39.3105C38.7672 37.6224 36.0432 40 32.7656 40C29.4879 40 26.7639 37.6224 26.2207 34.5H25C23.067 34.5 21.5 32.933 21.5 31V27.5C21.5 25.2909 23.2909 23.5 25.5 23.5H24.5Z" fill="url(#brain)"/>
  <path d="M29 26.5V34.5M34 25.5V35.5M26 29.5H38M29 22.5C29 24.1569 27.6569 25.5 26 25.5M35 22.5C35 24.1569 36.3431 25.5 38 25.5M38 31.5C36.3431 31.5 35 32.8431 35 34.5M26 31.5C27.6569 31.5 29 32.8431 29 34.5" stroke="white" stroke-width="2.2" stroke-linecap="round" stroke-linejoin="round"/>
  <defs>
    <linearGradient id="bg" x1="8" y1="8" x2="56" y2="56" gradientUnits="userSpaceOnUse">
      <stop stop-color="#2563EB"/>
      <stop offset="1" stop-color="#0F766E"/>
    </linearGradient>
    <linearGradient id="brain" x1="22" y1="21" x2="43" y2="40" gradientUnits="userSpaceOnUse">
      <stop stop-color="#60A5FA"/>
      <stop offset="1" stop-color="#14B8A6"/>
    </linearGradient>
  </defs>
</svg>
